<svg width="60" height="68" viewBox="0 0 60 68" fill="none" xmlns="http://www.w3.org/2000/svg">
<path d="M30 0.0893555C13.5659 0.0893555 0.19577 13.4595 0.19577 29.8936C0.19577 31.7148 0.19577 45.8035 0.19577 46.0541C0.19577 49.3409 2.86981 52.015 6.15662 52.015H8.48532C9.30553 54.3275 11.5141 55.9889 14.1044 55.9889C17.3912 55.9889 20.0653 53.3148 20.0653 50.028V33.8675C20.0653 30.5807 17.3912 27.9066 14.1044 27.9066C11.5141 27.9066 9.30553 29.568 8.48532 31.8805H6.15662C5.45999 31.8805 4.79158 32.0017 4.16967 32.2223V29.8936C4.16967 15.6507 15.7572 4.06325 30 4.06325C44.2428 4.06325 55.8303 15.6507 55.8303 29.8936V32.2223C55.2084 32.0017 54.54 31.8805 53.8434 31.8805H51.5147C50.6945 29.568 48.4859 27.9066 45.8956 27.9066C42.6088 27.9066 39.9347 30.5807 39.9347 33.8675V50.028C39.9347 53.3148 42.6088 55.9889 45.8956 55.9889C46.4971 55.9889 47.0778 55.8985 47.6257 55.732C46.8824 58.1775 44.607 59.9627 41.9217 59.9627H35.6191C34.7989 57.6502 32.5903 55.9889 30 55.9889C26.7132 55.9889 24.0392 58.6629 24.0392 61.9497C24.0392 65.2365 26.7132 67.9105 30 67.9105C32.5903 67.9105 34.7989 66.2492 35.6191 63.9366H41.9217C47.3997 63.9366 51.8564 59.4799 51.8564 54.0019V52.015H53.8434C57.1302 52.015 59.8042 49.3409 59.8042 46.0541C59.8042 45.8072 59.8042 31.7134 59.8042 29.8936C59.8042 13.4595 46.4341 0.0893555 30 0.0893555ZM12.1175 33.8675C12.1175 32.7719 13.0088 31.8805 14.1044 31.8805C15.2 31.8805 16.0914 32.7719 16.0914 33.8675V50.028C16.0914 51.1236 15.2 52.015 14.1044 52.015C13.0088 52.015 12.1175 51.1236 12.1175 50.028V33.8675ZM6.15662 35.8544H8.14357V48.0411H6.15662C5.06101 48.0411 4.16967 47.1497 4.16967 46.0541V37.8414C4.16967 36.7458 5.06101 35.8544 6.15662 35.8544ZM30 63.9366C28.9044 63.9366 28.0131 63.0453 28.0131 61.9497C28.0131 60.8541 28.9044 59.9627 30 59.9627C31.0956 59.9627 31.9869 60.8541 31.9869 61.9497C31.9869 63.0453 31.0956 63.9366 30 63.9366ZM47.8825 50.028C47.8825 51.1236 46.9912 52.015 45.8956 52.015C44.8 52.015 43.9086 51.1236 43.9086 50.028V33.8675C43.9086 32.7719 44.8 31.8805 45.8956 31.8805C46.9912 31.8805 47.8825 32.7719 47.8825 33.8675V50.028ZM55.8303 46.0541C55.8303 47.1497 54.939 48.0411 53.8434 48.0411H51.8564V35.8544H53.8434C54.939 35.8544 55.8303 36.7458 55.8303 37.8414V46.0541Z" fill="#70908B"/>
</svg>
